<?xml version="1.0" encoding="UTF-8" standalone="no"?>
<!DOCTYPE svg PUBLIC "-//W3C//DTD SVG 1.1//EN" "http://www.w3.org/Graphics/SVG/1.1/DTD/svg11.dtd">
<svg width="100%" height="100%" viewBox="0 0 458 446" version="1.1" xmlns="http://www.w3.org/2000/svg" xmlns:xlink="http://www.w3.org/1999/xlink" xml:space="preserve" xmlns:serif="http://www.serif.com/" style="fill-rule:evenodd;clip-rule:evenodd;stroke-linejoin:round;stroke-miterlimit:2;">
    <g transform="matrix(1,0,0,1,-31.3663,-32.9315)">
        <rect id="Page-1" serif:id="Page 1" x="0" y="0" width="520" height="512" style="fill:none;"/>
        <g id="Page-11" serif:id="Page 1">
            <g transform="matrix(1,0,0,1,488.633,249.436)">
                <g id="github_black">
                    <path d="M0,12.129C0,-114.142 -102.363,-216.504 -228.633,-216.504C-354.904,-216.504 -457.267,-114.142 -457.267,12.129C-457.267,112.353 -392.774,197.504 -303.03,228.374C-297.559,224.426 -291.258,219.556 -291.258,211.35C-291.258,198.775 -291.53,166.427 -291.53,166.427C-291.53,166.427 -301.455,168.116 -315.617,168.116C-351.304,168.116 -362.588,145.47 -367.959,132.794C-374.949,116.287 -384.013,108.535 -393.643,102.338C-399.557,98.529 -400.916,94.045 -394.073,92.761C-362.487,86.846 -354.409,128.389 -333.313,135.014C-318.256,139.734 -298.895,137.694 -289.264,131.498C-287.995,118.811 -278.796,107.836 -271.137,102.057C-324.793,96.93 -356.607,78.395 -373.103,48.605L-374.87,45.269L-379.016,35.805L-380.24,32.413C-385.406,17.292 -387.695,-0.026 -387.695,-19.372C-387.695,-53.715 -376.932,-66.672 -362.487,-84.981C-373.533,-124.136 -358.521,-150.895 -358.521,-150.895C-358.521,-150.895 -335.296,-155.684 -291.394,-124.417C-267.603,-134.558 -204.157,-135.403 -174.134,-126.671C-155.724,-138.783 -122.019,-155.966 -108.423,-151.155C-104.741,-145.262 -96.81,-128.079 -103.608,-90.333C-98.997,-82.052 -75.001,-64.418 -74.91,-14.56C-75.295,3.827 -77.222,19.355 -80.791,32.481L-82.773,39.196C-82.773,39.196 -83.906,42.362 -85.141,45.382L-86.591,48.717C-102.509,83.487 -135.161,96.468 -187.922,101.865C-170.826,112.569 -165.92,125.999 -165.92,162.337C-165.92,198.674 -166.408,203.553 -166.294,211.913C-166.196,219.3 -160.287,224.611 -154.973,228.633C-64.843,197.978 0,112.627 0,12.129" style="fill-rule:nonzero;"/>
                </g>
            </g>
            <g id="github_white">
            </g>
            <g id="github_blue">
            </g>
        </g>
    </g>
</svg>
