<?xml version="1.0" encoding="UTF-8" standalone="no"?>
<!DOCTYPE svg PUBLIC "-//W3C//DTD SVG 1.1//EN" "http://www.w3.org/Graphics/SVG/1.1/DTD/svg11.dtd">
<svg width="100%" height="100%" viewBox="0 0 1696 1696" version="1.1" xmlns="http://www.w3.org/2000/svg" xmlns:xlink="http://www.w3.org/1999/xlink" xml:space="preserve" xmlns:serif="http://www.serif.com/" style="fill-rule:evenodd;clip-rule:evenodd;stroke-linejoin:round;stroke-miterlimit:2;">
    <g transform="matrix(4.16667,0,0,4.16667,0,0)">
        <path d="M376.881,0L30.019,0C13.458,0 0,13.139 0,29.346L0,377.632C0,393.839 13.458,407 30.019,407L376.881,407C393.475,407 406.989,393.839 406.989,377.632L406.989,29.346C406.989,13.139 393.475,0 376.881,0Z" style="fill:rgb(0,123,182);fill-rule:nonzero;"/>
        <path d="M90.532,56.031C109.843,56.031 125.52,71.715 125.52,91.036C125.52,110.362 109.843,126.045 90.532,126.045C71.145,126.045 55.512,110.362 55.512,91.036C55.512,71.715 71.145,56.031 90.532,56.031ZM60.303,152.581L120.729,152.581L120.729,346.807L60.303,346.807L60.303,152.581Z" style="fill:white;fill-rule:nonzero;"/>
        <path d="M158.598,152.581L216.462,152.581L216.462,179.133L217.289,179.133C225.338,163.864 245.034,147.761 274.403,147.761C335.523,147.761 346.818,187.977 346.818,240.287L346.818,346.807L286.459,346.807L286.459,252.355C286.459,229.832 286.072,200.856 255.093,200.856C223.683,200.856 218.89,225.405 218.89,250.743L218.89,346.807L158.598,346.807L158.598,152.581Z" style="fill:white;fill-rule:nonzero;"/>
    </g>
</svg>
